Light Condensed.ufo
<glyph name="exclam" format="1">
  <advance width="134.0"/>
  <unicode hex="0021"/>
  <outline>
    <contour>
      <point x="55" y="150" type="line"/>
      <point x="55" y="150"/>
      <point x="75" y="150"/>
      <point x="75" y="150" type="curve"/>
      <point x="75" y="685" type="line"/>
      <point x="55" y="685" type="line"/>
    </contour>
    <component base="period" xOffset="-30"/>
  </outline>
</glyph>
<glyph name="parenright" format="1">
  <advance width="345"/>
  <unicode hex="0029"/>
  <outline>
    <contour>
      <point x="220" y="307" type="curve"/>
      <point x="220" y="127"/>
      <point x="196" y="-63"/>
      <point x="35" y="-91" type="curve"/>
      <point x="35" y="-109" type="line"/>
      <point x="206" y="-82"/>
      <point x="240" y="116"/>
      <point x="240" y="307" type="curve"/>
      <point x="240" y="488"/>
      <point x="199" y="674"/>
      <point x="35" y="703" type="curve"/>
      <point x="35" y="685" type="line"/>
      <point x="188" y="653"/>
      <point x="220" y="477"/>
    </contour>
  </outline>
</glyph>
<glyph name="slash" format="1">
  <advance width="533"/>
  <unicode hex="002F"/>
  <outline>
    <contour>
      <point x="71" y="-103" type="line"/>
      <point x="439" y="755" type="line"/>
      <point x="453.284048476" y="748.407362242"/>
      <point x="453" y="748"/>
      <point x="453" y="748" type="curve"/>
      <point x="86" y="-110" type="line"/>
    </contour>
  </outline>
</glyph>
<glyph name="zero" format="1">
  <advance width="638"/>
  <unicode hex="0030"/>
  <outline>
    <contour>
      <point x="319" y="6" type="curve"/>
      <point x="500" y="6"/>
      <point x="584" y="142"/>
      <point x="584" y="337" type="curve"/>
      <point x="584" y="536"/>
      <point x="503" y="677"/>
      <point x="319" y="677" type="curve"/>
      <point x="135" y="677"/>
      <point x="54" y="536"/>
      <point x="54" y="337" type="curve"/>
      <point x="54" y="142"/>
      <point x="138" y="6"/>
    </contour>
    <contour>
      <point x="319" y="-12" type="curve"/>
      <point x="126" y="-12"/>
      <point x="34" y="130"/>
      <point x="34" y="337" type="curve"/>
      <point x="34" y="548"/>
      <point x="123" y="695"/>
      <point x="319" y="695" type="curve"/>
      <point x="515" y="695"/>
      <point x="604" y="548"/>
      <point x="604" y="337" type="curve"/>
      <point x="604" y="130"/>
      <point x="512" y="-12"/>
    </contour>
  </outline>
</glyph>
<glyph name="seven" format="1">
  <advance width="480"/>
  <unicode hex="0037"/>
  <outline>
    <contour>
      <point x="455" y="667" type="line"/>
      <point x="295" y="483"/>
      <point x="213" y="260"/>
      <point x="213" y="0" type="curve"/>
      <point x="193" y="0" type="line"/>
      <point x="193" y="261"/>
      <point x="277" y="482"/>
      <point x="431" y="667" type="curve"/>
    </contour>
    <contour>
      <point x="40" y="685" type="line"/>
      <point x="40" y="685"/>
      <point x="455" y="685"/>
      <point x="455" y="685" type="curve"/>
      <point x="455" y="667" type="line"/>
      <point x="40" y="667" type="line"/>
    </contour>
  </outline>
</glyph>
<glyph name="less" format="1">
  <advance width="573"/>
  <unicode hex="003C"/>
  <outline>
    <contour>
      <point x="472.0" y="-83.0" type="line"/>
      <point x="485.0" y="-70.0" type="line"/>
      <point x="155" y="280" type="line"/>
      <point x="155" y="280"/>
      <point x="156" y="273"/>
      <point x="156" y="273" type="curve"/>
      <point x="485.0" y="631.0" type="line"/>
      <point x="471" y="643" type="line"/>
      <point x="132" y="275" type="line"/>
    </contour>
  </outline>
</glyph>
<glyph name="D" format="1">
  <advance width="305.046559492"/>
  <unicode hex="0044"/>
  <outline>
    <contour>
      <point x="232.5" y="18"/>
      <point x="285.0" y="125.0"/>
      <point x="285" y="343" type="curve" smooth="yes"/>
      <point x="285.0" y="541.0"/>
      <point x="220.908045977" y="667"/>
      <point x="121" y="667" type="curve" smooth="yes"/>
      <point x="55" y="667" type="line"/>
      <point x="55" y="685" type="line"/>
      <point x="123" y="685" type="line" smooth="yes"/>
      <point x="229.166666667" y="685"/>
      <point x="305.0" y="551.0"/>
      <point x="305" y="343" type="curve" smooth="yes"/>
      <point x="305.0" y="118.0"/>
      <point x="241.806818182" y="0"/>
      <point x="139" y="0" type="curve" smooth="yes"/>
      <point x="55" y="0" type="line"/>
      <point x="55" y="18" type="line"/>
      <point x="135" y="18" type="line" smooth="yes"/>
    </contour>
    <component base="I"/>
    <contour>
      <point x="238.0" y="685.0" type="move" name="top"/>
    </contour>
  </outline>
</glyph>
<glyph name="G" format="1">
  <advance width="363"/>
  <unicode hex="0047"/>
  <outline>
    <contour>
      <point x="333" y="296" type="line"/>
      <point x="202" y="296" type="line"/>
      <point x="202" y="314" type="line"/>
      <point x="333" y="314" type="line"/>
    </contour>
    <contour>
      <point x="316" y="0" type="line"/>
      <point x="311" y="314" type="line"/>
      <point x="333" y="314" type="line"/>
      <point x="333" y="0" type="line"/>
    </contour>
    <contour>
      <point x="302" y="529" type="line"/>
      <point x="278" y="626"/>
      <point x="239" y="677"/>
      <point x="188" y="677" type="curve"/>
      <point x="103" y="677"/>
      <point x="50" y="536"/>
      <point x="50" y="351" type="curve" smooth="yes"/>
      <point x="50" y="157"/>
      <point x="97" y="6"/>
      <point x="179" y="6" type="curve"/>
      <point x="255" y="6"/>
      <point x="312" y="100"/>
      <point x="312" y="247" type="curve"/>
      <point x="329" y="248" type="line"/>
      <point x="329" y="91"/>
      <point x="267" y="-12"/>
      <point x="181" y="-12" type="curve"/>
      <point x="87" y="-12"/>
      <point x="30" y="144"/>
      <point x="30" y="347" type="curve" smooth="yes"/>
      <point x="30" y="546"/>
      <point x="93" y="695"/>
      <point x="192" y="695" type="curve"/>
      <point x="249" y="695"/>
      <point x="294" y="643"/>
      <point x="318" y="537" type="curve"/>
    </contour>
    <contour>
      <point x="192" y="685" type="move" name="top"/>
    </contour>
    <contour>
      <point x="193" y="0" type="move" name="bottom"/>
    </contour>
  </outline>
</glyph>
<glyph name="H" format="1">
  <advance width="392"/>
  <unicode hex="0048"/>
  <outline>
    <contour>
      <point x="319" y="355" type="line"/>
      <point x="65" y="355" type="line"/>
      <point x="65" y="373" type="line"/>
      <point x="319" y="373" type="line"/>
    </contour>
    <component base="I" xOffset="262"/>
    <component base="I"/>
    <contour>
      <point x="296" y="685" type="move" name="top"/>
    </contour>
  </outline>
</glyph>
<glyph name="J" format="1">
  <advance width="231"/>
  <unicode hex="004A"/>
  <outline>
    <contour>
      <point x="132.0" y="9.0"/>
      <point x="156" y="52.5476190476"/>
      <point x="156" y="127" type="curve" smooth="yes"/>
      <point x="156" y="685" type="line"/>
      <point x="176" y="685" type="line"/>
      <point x="176" y="137" type="line" smooth="yes"/>
      <point x="176" y="39.0808080808"/>
      <point x="145.0" y="-11.0"/>
      <point x="89" y="-11" type="curve"/>
      <point x="48.5977011494" y="-11.0"/>
      <point x="8" y="43"/>
      <point x="15" y="135" type="curve"/>
      <point x="32" y="143" type="line"/>
      <point x="31" y="48"/>
      <point x="58.1401273885" y="9.0"/>
      <point x="89" y="9" type="curve"/>
    </contour>
    <contour>
      <point x="366" y="685" type="move" name="top"/>
    </contour>
  </outline>
</glyph>
<glyph name="R" format="1">
  <advance width="294"/>
  <unicode hex="0052"/>
  <outline>
    <contour>
      <point x="170" y="294" type="curve"/>
      <point x="250" y="0" type="line"/>
      <point x="224" y="0" type="line"/>
      <point x="224.0" y="0.0"/>
      <point x="149.0" y="288.0"/>
      <point x="149" y="288" type="curve"/>
      <point x="149" y="288"/>
      <point x="170" y="294"/>
    </contour>
    <component base="P"/>
    <contour>
      <point x="258" y="684" type="move" name="top"/>
    </contour>
    <contour>
      <point x="257" y="0" type="move" name="bottom"/>
    </contour>
  </outline>
</glyph>
<glyph name="U" format="1">
  <advance width="433"/>
  <unicode hex="0055"/>
  <outline>
    <contour>
      <point x="378" y="685" type="line"/>
      <point x="378" y="157" type="line" smooth="yes"/>
      <point x="378" y="37"/>
      <point x="317" y="-12"/>
      <point x="216" y="-12" type="curve" smooth="yes"/>
      <point x="114" y="-12"/>
      <point x="55" y="41"/>
      <point x="55" y="157" type="curve" smooth="yes"/>
      <point x="55" y="685" type="line"/>
      <point x="75" y="685" type="line"/>
      <point x="75" y="154" type="line" smooth="yes"/>
      <point x="75" y="45"/>
      <point x="138" y="6"/>
      <point x="216" y="6" type="curve" smooth="yes"/>
      <point x="294" y="6"/>
      <point x="358" y="41"/>
      <point x="358" y="154" type="curve" smooth="yes"/>
      <point x="358" y="685" type="line"/>
    </contour>
    <contour>
      <point x="217" y="685" type="move" name="top"/>
    </contour>
    <contour>
      <point x="217" y="0" type="move" name="bottom"/>
    </contour>
    <contour>
      <point x="295" y="0" type="move" name="ogonek"/>
    </contour>
  </outline>
</glyph>
<glyph name="W" format="1">
  <advance width="547"/>
  <unicode hex="0057"/>
  <outline>
    <contour>
      <point x="261" y="685" type="line"/>
      <point x="286" y="685" type="line"/>
      <point x="421" y="0" type="line"/>
      <point x="398" y="0" type="line"/>
    </contour>
    <contour>
      <point x="557" y="685" type="line"/>
      <point x="421" y="0" type="line"/>
      <point x="398" y="0" type="line"/>
      <point x="532" y="685" type="line"/>
    </contour>
    <contour>
      <point x="-10" y="685" type="line"/>
      <point x="15" y="685" type="line"/>
      <point x="149" y="0" type="line"/>
      <point x="126" y="0" type="line"/>
    </contour>
    <contour>
      <point x="286" y="685" type="line"/>
      <point x="149" y="0" type="line"/>
      <point x="126" y="0" type="line"/>
      <point x="261" y="685" type="line"/>
    </contour>
    <contour>
      <point x="473" y="685" type="move" name="top"/>
    </contour>
  </outline>
</glyph>
<glyph name="X" format="1">
  <advance width="344"/>
  <unicode hex="0058"/>
  <outline>
    <contour>
      <point x="322" y="685" type="line"/>
      <point x="28" y="0" type="line"/>
      <point x="5" y="0" type="line"/>
      <point x="299" y="685" type="line"/>
    </contour>
    <contour>
      <point x="14" y="685" type="line"/>
      <point x="37" y="685" type="line"/>
      <point x="339" y="0" type="line"/>
      <point x="316" y="0" type="line"/>
    </contour>
  </outline>
</glyph>
<glyph name="Z" format="1">
  <advance width="378"/>
  <unicode hex="005A"/>
  <outline>
    <contour>
      <point x="15" y="0" type="line"/>
      <point x="363" y="0" type="line"/>
      <point x="363" y="18" type="line"/>
      <point x="41" y="18" type="line"/>
      <point x="353" y="667" type="line"/>
      <point x="353" y="685" type="line"/>
      <point x="35" y="685" type="line"/>
      <point x="35" y="667" type="line"/>
      <point x="331" y="667" type="line"/>
      <point x="15" y="18" type="line"/>
    </contour>
    <contour>
      <point x="189" y="685" type="move" name="top"/>
    </contour>
  </outline>
</glyph>
<glyph name="c" format="1">
  <advance width="347"/>
  <unicode hex="0063"/>
  <outline>
    <contour>
      <point x="286" y="358" type="line"/>
      <point x="278" y="453"/>
      <point x="243" y="490"/>
      <point x="191" y="490" type="curve" smooth="yes"/>
      <point x="108" y="490"/>
      <point x="55" y="399"/>
      <point x="55" y="248" type="curve" smooth="yes"/>
      <point x="55" y="97"/>
      <point x="98" y="7"/>
      <point x="196" y="7" type="curve" smooth="yes"/>
      <point x="246" y="7"/>
      <point x="280" y="48"/>
      <point x="294" y="123" type="curve"/>
      <point x="313" y="116" type="line"/>
      <point x="299" y="33"/>
      <point x="254" y="-12"/>
      <point x="194" y="-12" type="curve" smooth="yes"/>
      <point x="86" y="-12"/>
      <point x="35" y="82"/>
      <point x="35" y="245" type="curve" smooth="yes"/>
      <point x="35" y="408"/>
      <point x="95" y="510"/>
      <point x="189" y="510" type="curve" smooth="yes"/>
      <point x="252" y="510"/>
      <point x="298" y="471"/>
      <point x="305" y="365" type="curve"/>
    </contour>
    <contour>
      <point x="189" y="510" type="move" name="top"/>
    </contour>
    <contour>
      <point x="187" y="-12" type="move" name="bottom"/>
    </contour>
  </outline>
</glyph>
<glyph name="e" format="1">
  <advance width="337"/>
  <unicode hex="0065"/>
  <outline>
    <contour>
      <point x="55" y="262" type="line"/>
      <point x="287" y="262" type="line"/>
      <point x="277" y="242" type="line"/>
      <point x="55" y="242" type="line"/>
    </contour>
    <contour>
      <point x="302" y="119" type="line"/>
      <point x="271" y="24"/>
      <point x="229" y="-12"/>
      <point x="173" y="-12" type="curve" smooth="yes"/>
      <point x="85" y="-12"/>
      <point x="35" y="71"/>
      <point x="35" y="258" type="curve" smooth="yes"/>
      <point x="35" y="421"/>
      <point x="85" y="510"/>
      <point x="170" y="510" type="curve" smooth="yes"/>
      <point x="248" y="510"/>
      <point x="306" y="411"/>
      <point x="290" y="242" type="curve"/>
      <point x="270" y="242" type="line"/>
      <point x="289" y="400"/>
      <point x="235" y="490"/>
      <point x="169" y="490" type="curve" smooth="yes"/>
      <point x="95" y="490"/>
      <point x="55" y="404"/>
      <point x="55" y="248" type="curve" smooth="yes"/>
      <point x="55" y="76"/>
      <point x="100" y="8"/>
      <point x="176" y="8" type="curve" smooth="yes"/>
      <point x="222" y="8"/>
      <point x="255" y="41"/>
      <point x="286" y="129" type="curve"/>
    </contour>
    <contour>
      <point x="223" y="0" type="move" name="ogonek"/>
    </contour>
    <contour>
      <point x="170" y="500" type="move" name="top"/>
    </contour>
    <contour>
      <point x="172" y="0" type="move" name="bottom"/>
    </contour>
  </outline>
</glyph>
<glyph name="f" format="1">
  <advance width="193"/>
  <unicode hex="0066"/>
  <outline>
    <contour>
      <point x="15" y="480" type="line"/>
      <point x="15" y="500" type="line"/>
      <point x="169" y="500" type="line"/>
      <point x="169" y="480" type="line"/>
    </contour>
    <contour>
      <point x="99" y="0" type="line"/>
      <point x="79" y="0" type="line"/>
      <point x="79" y="626" type="line" smooth="yes"/>
      <point x="79" y="657"/>
      <point x="94" y="676"/>
      <point x="126" y="676" type="curve" smooth="yes"/>
      <point x="142" y="676"/>
      <point x="161" y="672"/>
      <point x="185" y="662" type="curve"/>
      <point x="177" y="644" type="line"/>
      <point x="158" y="653"/>
      <point x="142" y="657"/>
      <point x="131" y="657" type="curve" smooth="yes"/>
      <point x="108" y="657"/>
      <point x="99" y="642"/>
      <point x="99" y="615" type="curve" smooth="yes"/>
    </contour>
  </outline>
</glyph>
<glyph name="o" format="1">
  <advance width="358"/>
  <unicode hex="006F"/>
  <outline>
    <contour>
      <point x="179" y="8" type="curve" smooth="yes"/>
      <point x="259" y="8"/>
      <point x="308" y="109"/>
      <point x="308" y="249" type="curve" smooth="yes"/>
      <point x="308" y="389"/>
      <point x="259" y="490"/>
      <point x="179" y="490" type="curve" smooth="yes"/>
      <point x="99" y="490"/>
      <point x="50" y="389"/>
      <point x="50" y="249" type="curve" smooth="yes"/>
      <point x="50" y="109"/>
      <point x="99" y="8"/>
    </contour>
    <contour>
      <point x="179" y="-12" type="curve" smooth="yes"/>
      <point x="87" y="-12"/>
      <point x="30" y="97"/>
      <point x="30" y="249" type="curve" smooth="yes"/>
      <point x="30" y="401"/>
      <point x="87" y="510"/>
      <point x="179" y="510" type="curve" smooth="yes"/>
      <point x="271" y="510"/>
      <point x="328" y="401"/>
      <point x="328" y="249" type="curve" smooth="yes"/>
      <point x="328" y="97"/>
      <point x="271" y="-12"/>
    </contour>
    <contour>
      <point x="269" y="500" type="move" name="top"/>
    </contour>
    <contour>
      <point x="269" y="0" type="move" name="bottom"/>
    </contour>
  </outline>
</glyph>
<glyph name="r" format="1">
  <advance width="227"/>
  <unicode hex="0072"/>
  <outline>
    <contour>
      <point x="201" y="467" type="line"/>
      <point x="188" y="489"/>
      <point x="171.291666667" y="493.0"/>
      <point x="155" y="493" type="curve" smooth="yes"/>
      <point x="109.0" y="493.0"/>
      <point x="75.0" y="438.910958904"/>
      <point x="75" y="344" type="curve"/>
      <point x="66" y="344" type="line"/>
      <point x="66.0" y="463.0"/>
      <point x="108" y="510"/>
      <point x="159" y="510" type="curve" smooth="yes"/>
      <point x="178" y="510"/>
      <point x="197.768019616" y="504.381110631"/>
      <point x="212" y="481" type="curve"/>
    </contour>
    <component base="dotlessi"/>
    <contour>
      <point x="206.0" y="500.0" type="move" name="top"/>
    </contour>
    <contour>
      <point x="207.0" y="0.0" type="move" name="bottom"/>
    </contour>
  </outline>
</glyph>
<glyph name="s" format="1">
  <advance width="283"/>
  <unicode hex="0073"/>
  <outline>
    <contour>
      <point x="239" y="381" type="line"/>
      <point x="233" y="476"/>
      <point x="181" y="492"/>
      <point x="143" y="492" type="curve" smooth="yes"/>
      <point x="96" y="492"/>
      <point x="54" y="447"/>
      <point x="54" y="384" type="curve"/>
      <point x="54" y="321"/>
      <point x="88" y="298"/>
      <point x="132" y="273" type="curve" smooth="yes"/>
      <point x="157" y="259" type="line" smooth="yes"/>
      <point x="207" y="231"/>
      <point x="258" y="197"/>
      <point x="258" y="120" type="curve"/>
      <point x="258" y="40"/>
      <point x="200" y="-12"/>
      <point x="138" y="-12" type="curve" smooth="yes"/>
      <point x="90" y="-12"/>
      <point x="35" y="30"/>
      <point x="25" y="102" type="curve"/>
      <point x="41" y="115" type="line"/>
      <point x="51" y="43"/>
      <point x="98" y="6"/>
      <point x="138" y="6" type="curve"/>
      <point x="189" y="6"/>
      <point x="238" y="49"/>
      <point x="238" y="118" type="curve"/>
      <point x="238" y="192"/>
      <point x="190" y="216"/>
      <point x="147" y="242" type="curve" smooth="yes"/>
      <point x="127" y="254" type="line" smooth="yes"/>
      <point x="78" y="283"/>
      <point x="35" y="312"/>
      <point x="35" y="385" type="curve"/>
      <point x="35" y="458"/>
      <point x="86" y="510"/>
      <point x="143" y="510" type="curve" smooth="yes"/>
      <point x="188" y="510"/>
      <point x="247" y="491"/>
      <point x="254" y="395" type="curve"/>
    </contour>
    <contour>
      <point x="138" y="0" type="move" name="bottom"/>
    </contour>
    <contour>
      <point x="129" y="500" type="move" name="top"/>
    </contour>
  </outline>
</glyph>
<glyph name="t" format="1">
  <advance width="179"/>
  <unicode hex="0074"/>
  <outline>
    <contour>
      <point x="10" y="500" type="line"/>
      <point x="164" y="500" type="line"/>
      <point x="164" y="480" type="line"/>
      <point x="10" y="480" type="line"/>
    </contour>
    <contour>
      <point x="84" y="618" type="line"/>
      <point x="84" y="69" type="line" smooth="yes"/>
      <point x="84" y="31"/>
      <point x="91" y="19"/>
      <point x="118" y="19" type="curve" smooth="yes"/>
      <point x="130" y="19"/>
      <point x="140" y="20"/>
      <point x="156" y="25" type="curve"/>
      <point x="160" y="8" type="line"/>
      <point x="143" y="4"/>
      <point x="129" y="0"/>
      <point x="115" y="0" type="curve" smooth="yes"/>
      <point x="80" y="0"/>
      <point x="64" y="19"/>
      <point x="64" y="58" type="curve" smooth="yes"/>
      <point x="64" y="604" type="line"/>
    </contour>
  </outline>
</glyph>
<glyph name="w" format="1">
  <advance width="404"/>
  <unicode hex="0077"/>
  <outline>
    <contour>
      <point x="126" y="0" type="line"/>
      <point x="102" y="0" type="line"/>
      <point x="189" y="500" type="line"/>
      <point x="207" y="500" type="line"/>
    </contour>
    <contour>
      <point x="102" y="0" type="line"/>
      <point x="15" y="500" type="line"/>
      <point x="36" y="500" type="line"/>
      <point x="125" y="0" type="line"/>
    </contour>
    <contour>
      <point x="311" y="0" type="line"/>
      <point x="288" y="0" type="line"/>
      <point x="369" y="500" type="line"/>
      <point x="389" y="500" type="line"/>
    </contour>
    <contour>
      <point x="287" y="0" type="line"/>
      <point x="197" y="500" type="line"/>
      <point x="215" y="500" type="line"/>
      <point x="311" y="0" type="line"/>
    </contour>
    <contour>
      <point x="242" y="500" type="move" name="top"/>
    </contour>
  </outline>
</glyph>
<glyph name="y" format="1">
  <advance width="305"/>
  <unicode hex="0079"/>
  <outline>
    <contour>
      <point x="150" y="-28" type="line"/>
      <point x="10" y="500" type="line"/>
      <point x="10" y="500" type="line"/>
      <point x="10" y="500"/>
      <point x="33" y="500"/>
      <point x="33" y="500" type="curve"/>
      <point x="165" y="-12" type="line"/>
    </contour>
    <contour>
      <point x="178" y="0" type="line" smooth="yes"/>
      <point x="154" y="-104"/>
      <point x="116" y="-129"/>
      <point x="76" y="-129" type="curve" smooth="yes"/>
      <point x="51" y="-129"/>
      <point x="20" y="-122"/>
      <point x="-6" y="-109" type="curve"/>
      <point x="5" y="-91" type="line"/>
      <point x="25" y="-102"/>
      <point x="49" y="-109"/>
      <point x="70" y="-109" type="curve" smooth="yes"/>
      <point x="108" y="-109"/>
      <point x="137" y="-86"/>
      <point x="156" y="0" type="curve" smooth="yes"/>
      <point x="268" y="500" type="line"/>
      <point x="291" y="500" type="line"/>
    </contour>
    <contour>
      <point x="154" y="500" type="move" name="top"/>
    </contour>
  </outline>
</glyph>
<glyph name="bar" format="1">
  <advance width="130"/>
  <unicode hex="007C"/>
  <outline>
    <contour>
      <point x="55" y="-185" type="line"/>
      <point x="55" y="685" type="line"/>
      <point x="75" y="685" type="line"/>
      <point x="75" y="-185" type="line"/>
    </contour>
  </outline>
</glyph>
<glyph name="dotlessi" format="1">
  <advance width="130"/>
  <unicode hex="0131"/>
  <outline>
    <contour>
      <point x="55" y="0" type="line"/>
      <point x="55" y="500" type="line"/>
      <point x="75" y="500" type="line"/>
      <point x="75" y="0" type="line"/>
    </contour>
  </outline>
</glyph>
<glyph name="afii10020" format="1">
  <advance width="442"/>
  <unicode hex="0413"/>
  <outline>
    <contour>
      <point x="412" y="667" type="line"/>
      <point x="63" y="667" type="line"/>
      <point x="63" y="685" type="line"/>
      <point x="412" y="685" type="line"/>
    </contour>
    <component base="I"/>
  </outline>
</glyph>
<glyph name="afii10044" format="1">
  <advance width="686"/>
  <unicode hex="042A"/>
  <outline>
    <contour>
      <point x="185" y="667" type="line"/>
      <point x="-70" y="667" type="line"/>
      <point x="-70" y="685" type="line"/>
      <point x="185" y="685" type="line"/>
    </contour>
    <component base="afii10046" xOffset="116"/>
  </outline>
</glyph>
<glyph name="afii10081" format="1">
  <advance width="552"/>
  <unicode hex="043F"/>
  <outline>
    <contour>
      <point x="482" y="482" type="line"/>
      <point x="65" y="482" type="line"/>
      <point x="65" y="500" type="line"/>
      <point x="482" y="500" type="line"/>
    </contour>
    <component base="dotlessi" xOffset="410"/>
    <component base="dotlessi"/>
  </outline>
</glyph>
<glyph name="afii10084" format="1">
  <advance width="465"/>
  <unicode hex="0442"/>
  <outline>
    <contour>
      <point x="455" y="482" type="line"/>
      <point x="10" y="482" type="line"/>
      <point x="10" y="500" type="line"/>
      <point x="455" y="500" type="line"/>
    </contour>
    <contour>
      <point x="223" y="0" type="line"/>
      <point x="223" y="500" type="line"/>
      <point x="243" y="500" type="line"/>
      <point x="243" y="0" type="line"/>
    </contour>
  </outline>
</glyph>
<glyph name="uni090B" format="1">
  <advance width="874"/>
  <unicode hex="090B"/>
  <outline>
    <contour>
      <point x="731" y="334" type="line" smooth="yes"/>
      <point x="701.098039216" y="297.333333333"/>
      <point x="668.803921569" y="268.545454545"/>
      <point x="670" y="234" type="curve"/>
      <point x="668.736842105" y="212.838709677"/>
      <point x="688.947368421" y="193.0"/>
      <point x="718" y="193" type="curve"/>
      <point x="750" y="193"/>
      <point x="763" y="204"/>
      <point x="786" y="229" type="curve"/>
      <point x="834" y="179" type="line"/>
      <point x="801" y="136"/>
      <point x="748" y="121"/>
      <point x="706" y="121" type="curve"/>
      <point x="651.495495495" y="121.0"/>
      <point x="585.0" y="158.300970874"/>
      <point x="585" y="234" type="curve"/>
      <point x="585.0" y="293.294117647"/>
      <point x="624.666666667" y="326.327586207"/>
      <point x="655" y="360" type="curve"/>
    </contour>
    <contour>
      <point x="449" y="401" type="line"/>
      <point x="570" y="294"/>
      <point x="673" y="361"/>
      <point x="673" y="450" type="curve"/>
      <point x="673.0" y="444.0"/>
      <point x="675" y="462"/>
      <point x="682" y="462" type="curve" smooth="yes"/>
      <point x="688" y="462"/>
      <point x="672.25" y="393.0"/>
      <point x="669" y="388" type="curve"/>
      <point x="583" y="444" type="line"/>
      <point x="591" y="492"/>
      <point x="637" y="544"/>
      <point x="692" y="544" type="curve"/>
      <point x="725" y="544"/>
      <point x="785" y="522"/>
      <point x="785" y="450" type="curve" smooth="yes"/>
      <point x="785" y="309"/>
      <point x="544" y="167"/>
      <point x="392" y="356" type="curve"/>
    </contour>
    <contour>
      <point x="376" y="358" type="line"/>
      <point x="325" y="405"/>
      <point x="264" y="416"/>
      <point x="195" y="416" type="curve" smooth="yes"/>
      <point x="138" y="416"/>
      <point x="89" y="399"/>
      <point x="49" y="374" type="curve"/>
      <point x="-2" y="439" type="line"/>
      <point x="46" y="468"/>
      <point x="111" y="496"/>
      <point x="195" y="496" type="curve" smooth="yes"/>
      <point x="330" y="496"/>
      <point x="405" y="447"/>
      <point x="476" y="358" type="curve"/>
    </contour>
    <component base="component_3" xOffset="1" yOffset="-319"/>
    <component base="component_6" xOffset="185"/>
    <component base="component_6" xOffset="-108"/>
    <component base="component_6" xOffset="482"/>
    <component base="l" xOffset="331"/>
    <component base="component_9"/>
  </outline>
</glyph>
<glyph name="uni092C" format="1">
  <advance width="551"/>
  <unicode hex="092C"/>
  <outline>
    <contour>
      <point x="175" y="420" type="line"/>
      <point x="315" y="258" type="line"/>
      <point x="276" y="208" type="line"/>
      <point x="137" y="373" type="line"/>
    </contour>
    <component base="uni0935"/>
  </outline>
</glyph>
<glyph name="uni093F" format="1">
  <advance width="284"/>
  <unicode hex="093F"/>
  <outline>
    <contour>
      <point x="177" y="685" type="curve"/>
      <point x="88" y="675" type="line"/>
      <point x="37" y="707"/>
      <point x="1" y="747"/>
      <point x="1" y="807" type="curve"/>
      <point x="1" y="929"/>
      <point x="168" y="988"/>
      <point x="354" y="988" type="curve" smooth="yes"/>
      <point x="562" y="988"/>
      <point x="709" y="910"/>
      <point x="875" y="748" type="curve"/>
      <point x="824" y="721" type="line"/>
      <point x="680" y="838"/>
      <point x="530" y="908"/>
      <point x="359" y="908" type="curve" smooth="yes"/>
      <point x="182" y="908"/>
      <point x="91" y="863"/>
      <point x="91" y="798" type="curve"/>
      <point x="91" y="743"/>
      <point x="132" y="716"/>
    </contour>
    <component base="uni093E"/>
  </outline>
</glyph>
<glyph name="uni0945" format="1">
  <advance width="0"/>
  <unicode hex="0945"/>
  <outline>
    <contour>
      <point x="-128" y="712" type="curve" smooth="yes"/>
      <point x="-34" y="712"/>
      <point x="12" y="772"/>
      <point x="12" y="832" type="curve" smooth="yes"/>
      <point x="12" y="853"/>
      <point x="11" y="864"/>
      <point x="1" y="890" type="curve"/>
      <point x="-62" y="878" type="line"/>
      <point x="-58" y="860"/>
      <point x="-56" y="850"/>
      <point x="-56" y="833" type="curve"/>
      <point x="-56" y="807"/>
      <point x="-76" y="782"/>
      <point x="-128" y="782" type="curve" smooth="yes"/>
      <point x="-162" y="782"/>
      <point x="-201" y="794"/>
      <point x="-244" y="856" type="curve"/>
      <point x="-283" y="822" type="line"/>
      <point x="-241" y="744"/>
      <point x="-170" y="712"/>
    </contour>
  </outline>
</glyph>
<glyph name="uni0948" format="1">
  <advance width="0"/>
  <unicode hex="0948"/>
  <outline>
    <contour>
      <point x="-202" y="685" type="line"/>
      <point x="-253" y="732"/>
      <point x="-314" y="743"/>
      <point x="-383" y="743" type="curve" smooth="yes"/>
      <point x="-440" y="743"/>
      <point x="-489" y="726"/>
      <point x="-529" y="701" type="curve"/>
      <point x="-580" y="766" type="line"/>
      <point x="-532" y="795"/>
      <point x="-467" y="823"/>
      <point x="-383" y="823" type="curve" smooth="yes"/>
      <point x="-248" y="823"/>
      <point x="-173" y="774"/>
      <point x="-102" y="685" type="curve"/>
    </contour>
    <contour>
      <point x="-191" y="685" type="line"/>
      <point x="-234" y="787"/>
      <point x="-274" y="875"/>
      <point x="-406" y="875" type="curve" smooth="yes"/>
      <point x="-457" y="875"/>
      <point x="-497" y="861"/>
      <point x="-539" y="836" type="curve"/>
      <point x="-580" y="912" type="line"/>
      <point x="-524" y="940"/>
      <point x="-469" y="955"/>
      <point x="-406" y="955" type="curve" smooth="yes"/>
      <point x="-241" y="955"/>
      <point x="-149" y="859"/>
      <point x="-97" y="685" type="curve"/>
    </contour>
  </outline>
</glyph>
<glyph name="uni0957" format="1">
  <advance width="0"/>
  <unicode hex="0957"/>
  <outline>
    <contour>
      <point x="-40" y="-377"/>
      <point x="-141" y="-396"/>
      <point x="-239" y="-396" type="curve" smooth="yes"/>
      <point x="-328" y="-396"/>
      <point x="-427" y="-373"/>
      <point x="-503" y="-304" type="curve"/>
      <point x="-454" y="-245" type="line"/>
      <point x="-392" y="-303"/>
      <point x="-308" y="-315"/>
      <point x="-245" y="-315" type="curve" smooth="yes"/>
      <point x="-155" y="-315"/>
      <point x="-76" y="-296"/>
      <point x="-13" y="-236" type="curve"/>
      <point x="38" y="-293" type="line"/>
    </contour>
    <component base="uni0956"/>
  </outline>
</glyph>
<glyph name="uni096C" format="1">
  <advance width="489"/>
  <unicode hex="096C"/>
  <outline>
    <contour>
      <point x="62" y="254" type="curve" smooth="yes"/>
      <point x="62" y="305"/>
      <point x="87" y="354"/>
      <point x="131" y="391" type="curve"/>
      <point x="104" y="417"/>
      <point x="89" y="461"/>
      <point x="89" y="514" type="curve" smooth="yes"/>
      <point x="89.0" y="615.535240017"/>
      <point x="165.340554555" y="692.0"/>
      <point x="254" y="692" type="curve" smooth="yes"/>
      <point x="302" y="692"/>
      <point x="346" y="679"/>
      <point x="377" y="651" type="curve"/>
      <point x="322" y="569" type="line"/>
      <point x="300" y="587"/>
      <point x="277" y="597"/>
      <point x="254" y="597" type="curve" smooth="yes"/>
      <point x="215" y="597"/>
      <point x="185" y="560"/>
      <point x="185" y="514" type="curve" smooth="yes"/>
      <point x="185" y="476"/>
      <point x="218" y="446"/>
      <point x="261" y="446" type="curve" smooth="yes"/>
      <point x="322" y="446" type="line"/>
      <point x="322" y="350" type="line"/>
      <point x="261" y="350" type="line" smooth="yes"/>
      <point x="204" y="350"/>
      <point x="158" y="313"/>
      <point x="158" y="268" type="curve" smooth="yes"/>
      <point x="158" y="214"/>
      <point x="207" y="172"/>
      <point x="268" y="172" type="curve"/>
      <point x="268" y="221"/>
      <point x="304" y="261"/>
      <point x="350" y="261" type="curve" smooth="yes"/>
      <point x="399" y="261"/>
      <point x="439" y="221"/>
      <point x="439" y="172" type="curve" smooth="yes"/>
      <point x="439" y="124"/>
      <point x="407" y="83"/>
      <point x="363" y="76" type="curve"/>
      <point x="359" y="50"/>
      <point x="340" y="18"/>
      <point x="309" y="-20" type="curve"/>
      <point x="213" y="-20" type="line"/>
      <point x="244" y="18"/>
      <point x="263" y="50"/>
      <point x="268" y="76" type="curve"/>
      <point x="154.822884665" y="76.0"/>
      <point x="62.0" y="155.282246012"/>
    </contour>
  </outline>
</glyph>
<glyph name="quoteleft" format="1">
  <advance width="202"/>
  <unicode hex="2018"/>
  <outline>
    <contour>
      <point x="104" y="553" type="line"/>
      <point x="98" y="603"/>
      <point x="117" y="633"/>
      <point x="153" y="654" type="curve"/>
      <point x="131" y="685" type="line"/>
      <point x="86" y="657"/>
      <point x="57" y="621"/>
      <point x="55" y="553" type="curve"/>
      <point x="55" y="438" type="line"/>
      <point x="157" y="438" type="line"/>
      <point x="157" y="553" type="line"/>
    </contour>
  </outline>
</glyph>
<glyph name="boucle" format="1">
  <advance width="630"/>
  <outline>
    <contour>
      <point x="398" y="259" type="line"/>
      <point x="398" y="413"/>
      <point x="355.816326531" y="490.0"/>
      <point x="292" y="490" type="curve"/>
      <point x="215.523316062" y="490.0"/>
      <point x="169" y="397"/>
      <point x="169" y="248" type="curve"/>
      <point x="169" y="90"/>
      <point x="208.373923685" y="8.72882959515"/>
      <point x="291" y="10" type="curve"/>
      <point x="358.893401015" y="10.0"/>
      <point x="398" y="99"/>
      <point x="398" y="259" type="curve"/>
      <point x="412" y="259" type="line"/>
      <point x="412.0" y="81.0"/>
      <point x="361.508928571" y="-10.0"/>
      <point x="282" y="-10" type="curve"/>
      <point x="196.807948192" y="-11.3106469509"/>
      <point x="149" y="81"/>
      <point x="149" y="248" type="curve" smooth="yes"/>
      <point x="149" y="407"/>
      <point x="200.623188406" y="510.0"/>
      <point x="286" y="510" type="curve"/>
      <point x="361.6" y="510.0"/>
      <point x="412.0" y="424.0"/>
      <point x="412" y="259" type="curve"/>
    </contour>
  </outline>
</glyph>
<glyph name="uni0961" format="1">
  <advance width="781"/>
  <outline>
    <contour>
      <point x="642" y="2" type="line" smooth="yes"/>
      <point x="617" y="-31"/>
      <point x="590" y="-57"/>
      <point x="591" y="-88" type="curve"/>
      <point x="590" y="-105"/>
      <point x="606" y="-120"/>
      <point x="629" y="-120" type="curve"/>
      <point x="661" y="-120"/>
      <point x="674" y="-108"/>
      <point x="697" y="-83" type="curve"/>
      <point x="745" y="-133" type="line"/>
      <point x="712" y="-176"/>
      <point x="659" y="-191"/>
      <point x="617" y="-191" type="curve"/>
      <point x="567" y="-191"/>
      <point x="506" y="-157"/>
      <point x="506" y="-88" type="curve"/>
      <point x="506" y="-33"/>
      <point x="540" y="-3"/>
      <point x="566" y="28" type="curve"/>
    </contour>
    <contour>
      <point x="561" y="404" type="line"/>
      <point x="471" y="404" type="line"/>
      <point x="471" y="664" type="line"/>
      <point x="561" y="664" type="line"/>
    </contour>
    <contour>
      <point x="336" y="219" type="line"/>
      <point x="324" y="320"/>
      <point x="289" y="364"/>
      <point x="226" y="364" type="curve" smooth="yes"/>
      <point x="169" y="364"/>
      <point x="116" y="320"/>
      <point x="116" y="243" type="curve" smooth="yes"/>
      <point x="116" y="176"/>
      <point x="156" y="145"/>
      <point x="237" y="110" type="curve"/>
      <point x="201" y="33" type="line"/>
      <point x="82" y="70"/>
      <point x="29" y="149"/>
      <point x="28" y="235" type="curve" smooth="yes"/>
      <point x="26" y="358"/>
      <point x="104" y="452"/>
      <point x="218" y="452" type="curve"/>
      <point x="331" y="452"/>
      <point x="415" y="361"/>
      <point x="403" y="244" type="curve"/>
    </contour>
    <contour>
      <point x="420" y="241" type="curve"/>
      <point x="336" y="219" type="line"/>
      <point x="336" y="368"/>
      <point x="427" y="478"/>
      <point x="525" y="478" type="curve"/>
      <point x="641" y="478"/>
      <point x="695" y="414"/>
      <point x="695" y="298" type="curve"/>
      <point x="695" y="197"/>
      <point x="595" y="152"/>
      <point x="596" y="90" type="curve"/>
      <point x="595" y="66"/>
      <point x="612" y="43"/>
      <point x="636" y="43" type="curve"/>
      <point x="671" y="43"/>
      <point x="685" y="56"/>
      <point x="710" y="82" type="curve"/>
      <point x="760" y="29" type="line"/>
      <point x="726" y="-16"/>
      <point x="668" y="-33"/>
      <point x="624" y="-33" type="curve"/>
      <point x="571" y="-33"/>
      <point x="506" y="7"/>
      <point x="506" y="90" type="curve"/>
      <point x="506" y="190"/>
      <point x="607" y="211"/>
      <point x="607" y="293" type="curve" smooth="yes"/>
      <point x="607" y="363"/>
      <point x="574" y="390"/>
      <point x="529" y="390" type="curve"/>
      <point x="471" y="390"/>
      <point x="403" y="338"/>
    </contour>
    <component base="component_6" xOffset="-108"/>
    <component base="component_6" xOffset="389"/>
    <component base="component_6" xOffset="131"/>
  </outline>
</glyph>
<glyph name="uni0979" format="1">
  <advance width="765"/>
  <outline>
    <contour>
      <point x="282" y="451" type="curve"/>
      <point x="282" y="503" type="line"/>
      <point x="425.0" y="503.0"/>
      <point x="508" y="443"/>
      <point x="508" y="322" type="curve"/>
      <point x="508" y="207"/>
      <point x="408.0" y="146.0"/>
      <point x="272" y="146" type="curve" smooth="yes"/>
      <point x="91" y="146"/>
      <point x="13" y="269"/>
      <point x="-10" y="377" type="curve"/>
      <point x="69" y="412" type="line"/>
      <point x="97" y="312"/>
      <point x="157" y="231"/>
      <point x="280" y="231" type="curve" smooth="yes"/>
      <point x="365" y="231"/>
      <point x="417" y="275"/>
      <point x="417" y="336" type="curve"/>
      <point x="417" y="380"/>
      <point x="392" y="451"/>
    </contour>
    <component base="uni0902" xOffset="408" yOffset="-877"/>
    <component base="uni0902" xOffset="476" yOffset="-789"/>
    <component base="component_6" xOffset="107"/>
    <component base="component_6" xOffset="-103"/>
    <component base="component_6" xOffset="184" yOffset="-154"/>
    <component base="uni093E" xOffset="481"/>
    <component base="uni0902" xOffset="341" yOffset="-789"/>
  </outline>
</glyph>
